<svg
      xmlns="http://www.w3.org/2000/svg"
      width="500"
      height="100"
      version="1"
      viewBox="0 0 375 75"
    >
      <defs>
        <clipPath id="e043e278bd">
          <path d="M176.578 0h51v31h-51zm0 0"></path>
        </clipPath>
      </defs>
      <path
        fill="#fff"
        d="M5.016-35.89c0-.97.332-1.774 1-2.422.664-.657 1.484-.985 2.453-.985.969 0 1.773.328 2.422.984.656.649.984 1.454.984 2.422V-6.25h17.672c.851 0 1.582.309 2.187.922.614.617.922 1.351.922 2.203 0 .855-.308 1.59-.922 2.203A2.952 2.952 0 0129.547 0H8.469C7.5 0 6.679-.332 6.016-1c-.668-.664-1-1.484-1-2.453zm0 0"
        transform="translate(247.933 60.824)"
      ></path>
      <path
        fill="#fff"
        d="M2.281-8.578c0-1.602.297-3 .89-4.188a8.12 8.12 0 012.485-2.953C6.72-16.5 8-17.082 9.5-17.469c1.508-.394 3.156-.593 4.938-.593 1.664 0 3.113.117 4.343.343 1.227.219 2.414.516 3.563.89v-.733c0-2.114-.625-3.708-1.875-4.782-1.242-1.082-3.047-1.625-5.422-1.625-1.305 0-2.477.125-3.516.375a47.673 47.673 0 00-3 .797c-.375.117-.73.172-1.062.172a2.8 2.8 0 01-2.016-.813c-.555-.539-.828-1.203-.828-1.984 0-.625.176-1.176.531-1.656.352-.488.79-.828 1.313-1.016a30.618 30.618 0 014.343-1.25c1.489-.312 3.196-.468 5.126-.468 4.124 0 7.312 1.007 9.562 3.015 2.25 2 3.375 5.121 3.375 9.36v14.484c0 .93-.32 1.7-.953 2.312-.637.618-1.418.922-2.344.922-.96 0-1.746-.285-2.36-.86-.616-.581-.921-1.241-.921-1.984v-1.109C21.285-2.484 20-1.472 18.437-.64 16.884.191 14.973.61 12.704.61 11.328.61 10.008.41 8.75.016c-1.262-.383-2.367-.957-3.313-1.72a8.601 8.601 0 01-2.296-2.843c-.575-1.133-.86-2.441-.86-3.922zM8.86-8.86v.109c0 1.418.536 2.516 1.61 3.297 1.082.773 2.46 1.156 4.14 1.156 1.114 0 2.149-.144 3.11-.437.968-.301 1.797-.727 2.484-1.282a6.387 6.387 0 001.64-2.015 5.382 5.382 0 00.626-2.563v-2c-.867-.332-1.867-.61-3-.828a18.773 18.773 0 00-3.703-.344c-2.23 0-3.938.43-5.125 1.282-1.188.855-1.782 2.062-1.782 3.625zm0 0"
        transform="translate(278.85 60.824)"
      ></path>
      <path
        fill="#fff"
        d="M7.578-40.969c.969 0 1.774.32 2.422.953.656.637.984 1.434.984 2.391v13.11a15.171 15.171 0 014-3.907c1.602-1.082 3.614-1.625 6.032-1.625 1.738 0 3.425.34 5.062 1.016a12.7 12.7 0 014.344 2.953c1.27 1.293 2.297 2.887 3.078 4.781.781 1.899 1.172 4.074 1.172 6.531v.11c0 2.449-.387 4.62-1.156 6.515-.762 1.899-1.782 3.496-3.063 4.797A12.898 12.898 0 0126.078-.39c-1.637.664-3.324 1-5.062 1-2.461 0-4.485-.523-6.078-1.562-1.594-1.04-2.915-2.242-3.954-3.61v1.5c0 .93-.328 1.72-.984 2.376C9.352-.04 8.547.28 7.578.28c-.93 0-1.719-.32-2.375-.969-.648-.656-.969-1.445-.969-2.375v-34.562c0-.957.313-1.754.938-2.39.633-.633 1.437-.954 2.406-.954zm3.234 26.203v.11c0 1.406.227 2.687.688 3.844.469 1.156 1.094 2.152 1.875 2.984a8.009 8.009 0 002.734 1.922 8.18 8.18 0 003.282.672 8.025 8.025 0 003.265-.672 8.245 8.245 0 002.672-1.86c.758-.8 1.363-1.785 1.813-2.953.445-1.176.672-2.488.672-3.937v-.11c0-1.414-.227-2.707-.672-3.875-.45-1.175-1.055-2.172-1.813-2.984a8.1 8.1 0 00-2.672-1.89 8.09 8.09 0 00-3.265-.672 8.247 8.247 0 00-3.282.671 8.117 8.117 0 00-2.734 1.922c-.781.836-1.406 1.828-1.875 2.985-.46 1.148-.688 2.43-.688 3.843zm0 0"
        transform="translate(307.983 60.824)"
      ></path>
      <path
        fill="#fff"
        d="M1.844-5.297c0-.738.258-1.379.781-1.922.52-.539 1.164-.812 1.938-.812.601 0 1.085.133 1.453.39 1.414 1.043 2.847 1.778 4.296 2.204 1.446.43 2.836.64 4.172.64 1.457 0 2.582-.285 3.375-.86.801-.57 1.203-1.343 1.203-2.312v-.11a2.15 2.15 0 00-.53-1.452c-.356-.406-.84-.754-1.454-1.047-.617-.3-1.324-.582-2.125-.844-.793-.258-1.617-.52-2.469-.781a42.816 42.816 0 01-3.265-1.063 11.856 11.856 0 01-2.953-1.578 8.085 8.085 0 01-2.157-2.437c-.554-.969-.828-2.157-.828-3.563v-.11c0-1.413.27-2.671.813-3.765a8.44 8.44 0 012.234-2.812c.945-.782 2.063-1.375 3.344-1.782a13.462 13.462 0 014.094-.609c1.562 0 3.14.215 4.734.64 1.602.43 3.11 1.012 4.516 1.75.488.262.879.606 1.172 1.032.3.43.453.938.453 1.531 0 .782-.274 1.434-.813 1.953-.543.524-1.203.782-1.984.782-.293 0-.532-.024-.719-.078a3.907 3.907 0 01-.61-.266 22.123 22.123 0 00-3.609-1.469c-1.168-.351-2.273-.531-3.312-.531-1.293 0-2.305.273-3.031.812-.731.532-1.094 1.227-1.094 2.078v.125c0 .555.187 1.028.562 1.422.375.387.864.743 1.469 1.063.613.312 1.32.601 2.125.86.8.261 1.629.538 2.484.827 1.07.336 2.145.727 3.22 1.172 1.081.45 2.062 1 2.937 1.657a8.066 8.066 0 012.14 2.359c.563.93.844 2.058.844 3.39v.126c0 1.554-.281 2.906-.844 4.062a7.832 7.832 0 01-2.312 2.875c-.98.762-2.14 1.34-3.485 1.734a15.469 15.469 0 01-4.28.579c-1.9 0-3.813-.29-5.75-.86a19.227 19.227 0 01-5.454-2.656 2.216 2.216 0 01-.922-.89c-.242-.407-.36-.891-.36-1.454zm0 0"
        transform="translate(341.796 60.824)"
      ></path>
      <path
        fill="#b39ddb"
        d="M5.016-3.453v-32.11c0-.957.332-1.769 1-2.437.664-.676 1.484-1.016 2.453-1.016h14.047c1.562 0 3.113.188 4.656.563 1.539.367 2.914.937 4.125 1.719a9.043 9.043 0 012.922 3.078c.738 1.261 1.11 2.781 1.11 4.562v.11c0 1.156-.153 2.199-.454 3.125-.293.93-.7 1.746-1.219 2.453a8.176 8.176 0 01-1.781 1.812c-.668.5-1.371.938-2.11 1.313a19.68 19.68 0 013.141 1.422 9.834 9.834 0 012.453 1.922 7.836 7.836 0 011.594 2.625c.375 1 .563 2.167.563 3.5v.109c0 1.75-.344 3.297-1.032 4.64-.687 1.336-1.668 2.45-2.937 3.344C32.285-1.832 30.77-1.156 29-.688 27.238-.226 25.266 0 23.078 0H8.468C7.5 0 6.68-.332 6.017-1c-.668-.664-1-1.484-1-2.453zm6.75-2.625h11.359c2.344 0 4.18-.442 5.516-1.328 1.343-.895 2.015-2.235 2.015-4.016v-.11c0-1.675-.664-2.968-1.984-3.874-1.313-.914-3.328-1.375-6.047-1.375h-10.86zm0-26.86v10.36h9.359c2.227 0 4.008-.43 5.344-1.297 1.343-.875 2.015-2.207 2.015-4v-.11c0-1.55-.59-2.765-1.765-3.64-1.168-.875-2.867-1.313-5.094-1.313zm0 0"
        transform="translate(5.582 60.795)"
      ></path>
      <path
        fill="#b39ddb"
        d="M4.625-37.625c0-.926.313-1.71.938-2.36.632-.656 1.437-.984 2.406-.984.968 0 1.773.328 2.422.985.656.648.984 1.433.984 2.359v34.563c0 .968-.328 1.773-.984 2.406-.649.625-1.454.937-2.422.937-.93 0-1.719-.312-2.375-.937-.649-.633-.969-1.438-.969-2.406zm0 0"
        transform="translate(42.246 60.795)"
      ></path>
      <path
        fill="#b39ddb"
        d="M3.906-10.703V-26.36c0-.97.32-1.774.969-2.422a3.232 3.232 0 012.375-.985c.957 0 1.758.328 2.406.985.656.648.985 1.453.985 2.422v13.656c0 2.336.546 4.105 1.64 5.312 1.102 1.211 2.656 1.813 4.656 1.813 2.008 0 3.618-.617 4.829-1.86 1.207-1.25 1.812-3.039 1.812-5.375v-13.546c0-.97.32-1.774.969-2.422.656-.657 1.46-.985 2.422-.985.937 0 1.738.328 2.406.985.664.648 1 1.453 1 2.422v23.297c0 .93-.328 1.718-.984 2.374-.649.649-1.453.97-2.422.97-.93 0-1.727-.313-2.39-.938-.669-.633-1-1.438-1-2.406v-1.5a14.523 14.523 0 01-3.626 3.64C18.503.098 16.645.61 14.375.61 11 .61 8.41-.398 6.609-2.42c-1.804-2.032-2.703-4.79-2.703-8.282zm0 0"
        transform="translate(54.616 60.795)"
      ></path>
      <path
        fill="#b39ddb"
        d="M2.625-14.719c0-2.113.348-4.097 1.047-5.953.707-1.863 1.703-3.488 2.984-4.875a14.11 14.11 0 014.547-3.297c1.75-.8 3.68-1.203 5.797-1.203 2.344 0 4.383.438 6.125 1.313 1.75.875 3.207 2.011 4.375 3.406a14.224 14.224 0 012.625 4.656c.57 1.711.86 3.418.86 5.125 0 .969-.32 1.75-.954 2.344a3.118 3.118 0 01-2.218.89H9.358c.375 2.45 1.32 4.31 2.844 5.579 1.52 1.261 3.395 1.89 5.625 1.89 1.414 0 2.692-.234 3.828-.703a12.761 12.761 0 003.14-1.86c.259-.187.509-.335.75-.452.25-.114.579-.172.985-.172.739 0 1.367.261 1.89.781.52.523.782 1.172.782 1.953 0 .406-.086.797-.25 1.172a2.468 2.468 0 01-.64.89A16.145 16.145 0 0123.765-.39C22.078.316 20.063.672 17.719.672c-2.117 0-4.094-.371-5.938-1.11-1.836-.75-3.433-1.789-4.797-3.124C5.63-4.907 4.563-6.517 3.781-8.392c-.773-1.875-1.156-3.945-1.156-6.218zm6.688-2.062h15.093a11.2 11.2 0 00-.718-3.032 7.874 7.874 0 00-1.516-2.453 6.97 6.97 0 00-2.25-1.64c-.875-.407-1.871-.61-2.985-.61-2.117 0-3.843.711-5.187 2.125-1.336 1.407-2.148 3.278-2.438 5.61zm0 0"
        transform="translate(85.596 60.795)"
      ></path>
      <path
        fill="#b39ddb"
        d="M7.578-40.969c.969 0 1.774.32 2.422.953.656.637.984 1.434.984 2.391v13.11a15.171 15.171 0 014-3.907c1.602-1.082 3.614-1.625 6.032-1.625 1.738 0 3.425.34 5.062 1.016a12.7 12.7 0 014.344 2.953c1.27 1.293 2.297 2.887 3.078 4.781.781 1.899 1.172 4.074 1.172 6.531v.11c0 2.449-.387 4.62-1.156 6.515-.762 1.899-1.782 3.496-3.063 4.797A12.898 12.898 0 0126.078-.39c-1.637.664-3.324 1-5.062 1-2.461 0-4.485-.523-6.078-1.562-1.594-1.04-2.915-2.242-3.954-3.61v1.5c0 .93-.328 1.72-.984 2.376C9.352-.04 8.547.28 7.578.28c-.93 0-1.719-.32-2.375-.969-.648-.656-.969-1.445-.969-2.375v-34.562c0-.957.313-1.754.938-2.39.633-.633 1.437-.954 2.406-.954zm3.234 26.203v.11c0 1.406.227 2.687.688 3.844.469 1.156 1.094 2.152 1.875 2.984a8.009 8.009 0 002.734 1.922 8.18 8.18 0 003.282.672 8.025 8.025 0 003.265-.672 8.245 8.245 0 002.672-1.86c.758-.8 1.363-1.785 1.813-2.953.445-1.176.672-2.488.672-3.937v-.11c0-1.414-.227-2.707-.672-3.875-.45-1.175-1.055-2.172-1.813-2.984a8.1 8.1 0 00-2.672-1.89 8.09 8.09 0 00-3.265-.672 8.247 8.247 0 00-3.282.671 8.117 8.117 0 00-2.734 1.922c-.781.836-1.406 1.828-1.875 2.985-.46 1.148-.688 2.43-.688 3.843zm0 0"
        transform="translate(115.685 60.795)"
      ></path>
      <path
        fill="#b39ddb"
        d="M2.625-14.719c0-2.113.348-4.097 1.047-5.953.707-1.863 1.703-3.488 2.984-4.875a14.11 14.11 0 014.547-3.297c1.75-.8 3.68-1.203 5.797-1.203 2.344 0 4.383.438 6.125 1.313 1.75.875 3.207 2.011 4.375 3.406a14.224 14.224 0 012.625 4.656c.57 1.711.86 3.418.86 5.125 0 .969-.32 1.75-.954 2.344a3.118 3.118 0 01-2.218.89H9.358c.375 2.45 1.32 4.31 2.844 5.579 1.52 1.261 3.395 1.89 5.625 1.89 1.414 0 2.692-.234 3.828-.703a12.761 12.761 0 003.14-1.86c.259-.187.509-.335.75-.452.25-.114.579-.172.985-.172.739 0 1.367.261 1.89.781.52.523.782 1.172.782 1.953 0 .406-.086.797-.25 1.172a2.468 2.468 0 01-.64.89A16.145 16.145 0 0123.765-.39C22.078.316 20.063.672 17.719.672c-2.117 0-4.094-.371-5.938-1.11-1.836-.75-3.433-1.789-4.797-3.124C5.63-4.907 4.563-6.517 3.781-8.392c-.773-1.875-1.156-3.945-1.156-6.218zm6.688-2.062h15.093a11.2 11.2 0 00-.718-3.032 7.874 7.874 0 00-1.516-2.453 6.97 6.97 0 00-2.25-1.64c-.875-.407-1.871-.61-2.985-.61-2.117 0-3.843.711-5.187 2.125-1.336 1.407-2.148 3.278-2.438 5.61zm0 0"
        transform="translate(149.507 60.795)"
      ></path>
      <path
        fill="#b39ddb"
        d="M4.234-3.063v-23.296c0-.97.313-1.774.938-2.422.633-.657 1.437-.985 2.406-.985.969 0 1.774.328 2.422.985.656.648.984 1.453.984 2.422v3c.782-1.883 1.836-3.43 3.172-4.641 1.332-1.207 2.742-1.813 4.235-1.813 1.082 0 1.91.32 2.484.954.57.625.86 1.422.86 2.39 0 .887-.262 1.61-.782 2.172a3.549 3.549 0 01-1.89 1.063c-2.461.437-4.422 1.59-5.891 3.453-1.461 1.855-2.188 4.527-2.188 8.015v8.704c0 .93-.328 1.718-.984 2.374-.648.649-1.453.97-2.422.97-.93 0-1.719-.313-2.375-.938-.648-.633-.969-1.438-.969-2.406zm0 0"
        transform="translate(179.596 60.795)"
      ></path>
      <path
        fill="#b39ddb"
        d="M4.234-3.063v-23.296c0-.97.313-1.774.938-2.422.633-.657 1.437-.985 2.406-.985.969 0 1.774.328 2.422.985.656.648.984 1.453.984 2.422v3c.782-1.883 1.836-3.43 3.172-4.641 1.332-1.207 2.742-1.813 4.235-1.813 1.082 0 1.91.32 2.484.954.57.625.86 1.422.86 2.39 0 .887-.262 1.61-.782 2.172a3.549 3.549 0 01-1.89 1.063c-2.461.437-4.422 1.59-5.891 3.453-1.461 1.855-2.188 4.527-2.188 8.015v8.704c0 .93-.328 1.718-.984 2.374-.648.649-1.453.97-2.422.97-.93 0-1.719-.313-2.375-.938-.648-.633-.969-1.438-.969-2.406zm0 0"
        transform="translate(199.042 60.795)"
      ></path>
      <path
        fill="#b39ddb"
        d="M5.516-29.766c.851 0 1.539.235 2.062.703.52.461.93 1.079 1.234 1.86L16.72-7.641l7.36-19.562A5.503 5.503 0 0125.265-29c.507-.508 1.191-.766 2.047-.766.882 0 1.644.309 2.28.922.634.617.954 1.371.954 2.266 0 .594-.094 1.133-.281 1.61L19.5.843c-.625 1.52-1.277 2.8-1.953 3.844-.668 1.039-1.39 1.882-2.172 2.53a7.427 7.427 0 01-2.578 1.407c-.95.3-2.016.453-3.203.453-.969 0-1.82-.07-2.547-.203a10.34 10.34 0 01-2.14-.625 4.104 4.104 0 01-1.454-.922c-.45-.43-.672-1.047-.672-1.86 0-.855.27-1.538.813-2.046.539-.5 1.18-.75 1.922-.75.3 0 .535.015.703.047.164.039.343.097.531.172.406.113.773.207 1.11.28.331.071.738.11 1.218.11 1.008 0 1.817-.234 2.422-.703.613-.46 1.203-1.262 1.766-2.406l.218-.625L2.563-24.86a3.53 3.53 0 01-.391-1.61c0-.968.312-1.758.937-2.375.633-.613 1.438-.922 2.407-.922zm0 0"
        transform="translate(218.488 60.795)"
      ></path>
      <g clipPath="url(#e043e278bd)">
        <path
          fill="#fff"
          d="M227.523 15.535c-.007 8.078-6.554 14.625-14.632 14.633-1.754 0-3.493-.316-5.13-.938-.007 0-.015-.003-.019-.003h-.012v-.004h-.007c-.008-.004-.012-.004-.016-.004a14.719 14.719 0 01-4.281-2.547 12.2 12.2 0 01-1.371-1.324 14.563 14.563 0 01-3.793-9.813c0-1.3-.36-2.578-1.04-3.687l-.003-.004v-.004h-.004a7.047 7.047 0 00-10.164-1.988 7.044 7.044 0 00-1.52 9.847 7.048 7.048 0 009.852 1.52 7.077 7.077 0 001.515-1.52 16.572 16.572 0 003.786 6.973c-6.133 5.234-15.348 4.508-20.586-1.625a15.194 15.194 0 01-.989-1.3c-.004-.013-.015-.024-.02-.036a14.535 14.535 0 01-2.507-8.176c0-.3.012-.598.031-.887C177.07 6.992 183.45.902 191.22.902a14.454 14.454 0 018.144 2.496.03.03 0 01.02.008c.453.305.887.637 1.3.992.493.403.954.844 1.372 1.325 2.445 2.68 3.8 6.18 3.797 9.812 0 1.031.226 2.05.664 2.985a7.256 7.256 0 00.7 1.18 7.047 7.047 0 009.846 1.515 7.046 7.046 0 00.434-11.012l-.012-.012a7.033 7.033 0 00-9.918.739c-.125.14-.242.289-.351.437a16.566 16.566 0 00-3.79-6.969 14.564 14.564 0 0114.348-2.656h.004a14.712 14.712 0 018.453 7.778l.004.003c.004.016.008.036.016.051a14.442 14.442 0 011.273 5.961"
        ></path>
      </g>
    </svg>